<svg width="16" height="16" viewBox="0 0 16 16" fill="none" xmlns="http://www.w3.org/2000/svg">
<path fill-rule="evenodd" clip-rule="evenodd" d="M7.00144 0.935155C7.30513 0.760153 7.64949 0.66803 8.00001 0.66803C8.35055 0.66803 8.69492 0.760161 8.99862 0.935177C8.99908 0.935444 8.99955 0.935711 9.00001 0.935979L13.6667 3.60264C13.9704 3.77801 14.2227 4.03016 14.3982 4.33381C14.5737 4.63746 14.6663 4.98192 14.6667 5.33264V10.6673C14.6663 11.0181 14.5737 11.3625 14.3982 11.6662C14.2227 11.9698 13.9704 12.222 13.6667 12.3973L13.6641 12.3988L9.00001 15.064C8.99961 15.0642 8.99921 15.0645 8.99881 15.0647C8.69507 15.2398 8.35062 15.332 8.00001 15.332C7.64941 15.332 7.30498 15.2398 7.00124 15.0647C7.00083 15.0645 7.00042 15.0642 7.00001 15.064L2.33592 12.3988L2.33334 12.3973C2.02961 12.222 1.77732 11.9698 1.6018 11.6662C1.42629 11.3625 1.3337 11.0181 1.33334 10.6673V5.33264C1.3337 4.98192 1.42629 4.63745 1.6018 4.33381C1.77732 4.03016 2.02961 3.77801 2.33334 3.60265L2.33591 3.60116L7.00144 0.935155ZM8.00001 2.00136C7.88298 2.00136 7.76802 2.03217 7.66668 2.09068L7.66411 2.09216L3.00001 4.75735C2.99966 4.75755 2.99931 4.75775 2.99896 4.75795C2.89818 4.81638 2.81447 4.9002 2.75616 5.00107C2.69771 5.1022 2.66685 5.21692 2.66668 5.33372V10.6663C2.66685 10.7831 2.6977 10.8978 2.75616 10.9989C2.81447 11.0998 2.89818 11.1836 2.99896 11.242C2.99931 11.2422 2.99966 11.2424 3.00001 11.2426L7.66668 13.9093C7.76802 13.9678 7.88299 13.9986 8.00001 13.9986C8.11703 13.9986 8.232 13.9678 8.33334 13.9093L8.33592 13.9078L13 11.2426C13.0004 11.2424 13.0007 11.2422 13.0011 11.242C13.1018 11.1836 13.1856 11.0998 13.2439 10.9989C13.3024 10.8977 13.3332 10.7829 13.3333 10.666V5.33401C13.3332 5.2171 13.3024 5.10228 13.2439 5.00107C13.1856 4.9002 13.1018 4.81639 13.0011 4.75796C13.0007 4.75775 13.0004 4.75755 13 4.75735L8.33334 2.09069C8.23199 2.03217 8.11703 2.00136 8.00001 2.00136Z" fill="#5C6973"/>
<path fill-rule="evenodd" clip-rule="evenodd" d="M1.60292 4.3062C1.78728 3.98749 2.1951 3.87858 2.51381 4.06294L7.99999 7.23651L13.4862 4.06294C13.8049 3.87858 14.2127 3.98749 14.3971 4.3062C14.5814 4.62491 14.4725 5.03272 14.1538 5.21709L8.33381 8.58375C8.12729 8.70321 7.87269 8.70321 7.66618 8.58375L1.84618 5.21709C1.52747 5.03272 1.41856 4.62491 1.60292 4.3062Z" fill="#5C6973"/>
<path fill-rule="evenodd" clip-rule="evenodd" d="M8.00001 7.33334C8.3682 7.33334 8.66668 7.63182 8.66668 8.00001V14.72C8.66668 15.0882 8.3682 15.3867 8.00001 15.3867C7.63182 15.3867 7.33334 15.0882 7.33334 14.72V8.00001C7.33334 7.63182 7.63182 7.33334 8.00001 7.33334Z" fill="#5C6973"/>
</svg>
